<svg xmlns="http://www.w3.org/2000/svg" viewBox="0 0 1080 1080"><rect x="92.7" y="92.7" width="894.7" height="894.7" rx="447.3" ry="447.3" style="fill:#fff"/><path d="M752.3 751.5c-8.7-.5-11.7 5.3-15.3 11.3-26.1 42.3-64.8 68.2-111.4 82.5-64.7 19.8-129.2 17.9-192.1-7.7-39.3-16-71.1-41.5-93-78.6-2.1-3.6-7-5.6-11.4-9.1 3.5-4.5 10.3-5.8 17.1-6.6 14.2-1.7 28.6-2.8 40.1-14.3 18.6 31.6 43 55.7 77.1 68.7 7.9-13.4 2.8-19.6-20.8-26.1 11.2-2.2 13.4-1.5 37.9 12.9-5-9.7-8.1-11.4-34.5-18.6 12.2-8.5 24.6-13.2 38.8-10.4 3.3.6 7.2 2.4 9.2 4.9 5.2 6.4 9.4 13.6 14.1 20.5 1.4-1 2.8-1.9 4.2-2.9-4.1 1-8.2 1.9-12 2.8 2.5 7.3 5 14.5 7.9 22.7-11.5 4.3-16.4-7.5-24.5-11.9-2.9 10.8-1.7 13.5 8.3 15.1 31.9 5.3 64 5.4 95.9 0 10.3-1.7 11.5-4.4 8.4-15-7.8 4.6-12.8 15.6-24.2 12 2.6-7.9 5-15.1 7.6-23-3.4-.8-7.5-1.7-11.7-2.6 6.8-6.7 12.1-14.8 19.7-18.6 7-3.6 16.5-4.3 24.6-3.4 7.4.8 14.4 5.5 21.3 9.7-13.7 2.4-26.1 5.7-33.9 18.2 11.2-8 22.7-15.1 37.8-13.1-24.1 8.8-26.3 11.4-21.2 26.8 34.3-13 58.7-36.9 77.7-69.2 15.3 18.7 41.1 8.4 58.4 22.7ZM482 821.8h2.2c4 8.5 8 17 12.8 27.4 3.6-12.2 6.5-22 9.4-32-1.2-.3-3.9-.8-5-1.1-1.1 7.2-2.1 13.8-3.1 21-9-7.9-6-23-19.8-26.7 3.4 12.2-.1 22.1-6.1 32 3 .5 5.7 1 6.5 1.1 1-7.8 2-14.8 2.9-21.7Zm78 29.1c0-4.2-1.2-9.4.2-10.2 9-5.5 13.2-1.5 13.1 8.8 3.2-.7 5.6-1.3 8.1-1.8-5.8-10.3-11.3-20.1-17.8-31.6-3.7 13.3-6.8 24.2-9.9 35.4 1.9-.1 4.5-.3 6.4-.5Zm98.3-30.4c-1.6-4-4.2-7.4-3.5-9.6.8-2.4 5.1-5.3 7.4-5 3 .4 5.6 3.9 9 6.6 1-.8 3.2-2.4 5.4-4.1-9.7-7-18.8-13.7-29.7-21.6 2.4 13.7 4.5 25.1 6.5 36.6 1.7-1.1 3.6-2.3 4.8-3ZM459 801.9c-9.4 8.9-17.6 16.7-26 24.7 1.7.9 3.7 1.9 4.7 2.4 2.4-3.2 4.7-8.3 6.4-8.2 8.8.8 12.3 5.6 6.7 14.4 3.1 1.1 5.5 1.9 8.2 2.8v-36.1Zm134.2 33.6c.8 8.4 8 11.3 15.3 5.9 2.6-1.9 5.2-6.5 4.8-9.3-.4-2.8-4.4-5.5-7.4-7.5-1.8-1.2-4.8-.3-6.9-1.2-2.3-1-4.6-2.6-5.9-4.6-.6-.9.9-4.6 2.1-4.9 2.2-.6 5 0 7.3.7 1.6.5 2.9 2.1 4.3 3.2.6-.8 1.2-1.7 1.9-2.5-2.5-1.7-4.7-4.3-7.4-4.8-5.9-1.1-11.3 1.3-11.9 7.6-.3 3 2.9 7.1 5.6 9.5 1.9 1.7 6.1.6 8.4 2.1 2.5 1.6 4 4.8 5.9 7.3-3.2 1.1-6.4 3-9.6 3-2.1 0-4.2-2.7-6.5-4.4Zm-66.7-16.4c-.8 12.2-1.4 22-2 32h7.6v-31.2c4.3 2.6 7.1 4.3 10.1 6.1-.8-7.4-4.2-8.6-22.3-7.1-2 .2-3.8 2.8-5.8 4.3.5.6.9 1.2 1.4 1.8 2.9-1.6 5.7-3.1 11-6Zm-121.9-8.9c1.5.9 3.9 2.3 5.3 3.1 2.5-4.7 4.6-8.9 7.6-14.4 3.1 3.7 5.1 6.1 7.5 8.9 1.4-2.7 2.6-4.9 3.6-6.7-3.4-.8-6.3-1.5-10.5-2.5 3.4-4.9 6-8.6 8.7-12.5-2.2-1.3-4.5-2.7-5.2-3.2-5.8 9.4-11.3 18.1-17 27.3Zm232.9 20.5c-4.5-10.3-8.6-19.7-12.9-29.6-1.6.8-4.5 2.3-5.5 2.8 4.8 10.2 9.1 19.4 13.6 29 1.8-.8 4.2-1.9 4.8-2.2Zm-176.9-67.8c18 1.4 28 13.6 37.3 28.5-2.6-16.5-20.9-30.1-37.3-28.5ZM582.4 790c8.9-13.8 19.2-25.5 37-27.1-15.7-1.8-32.8 10.5-37 27.1Zm-104-430.7c-10.5-17.8-18.3-35.3-14.5-55.7 3.2-16.8 13.3-25.5 30.4-27.5 11.1-1.3 22.5-2.7 32.7-6.7 4.6-1.8 9.2-10.4 9.1-15.8 0-6.8-7.4-7-13.4-4.7 2.2-9.8 4.6-10.7 15.4-4.8-1.8-4.8-4.1-8.2-4.1-11.5 0-4.5 1.3-9.3 3.2-13.4.5-1 6.2-1 8.3.4 5 3.2 5.1 8.2 2.6 13.4-1.4 3-2.6 6.2-3.6 10.6 8.2-6.5 12.6-3.6 16.2 5-3-.4-5.3-1.5-7.1-.9-2.8 1-5.9 2.7-7.6 5.1-.9 1.2.9 4.5 1.7 6.8 6.1 16.6 22.1 14.9 34.4 16 24.6 2.3 37.1 13.5 37.1 38.2 0 15.8-6.1 29.5-13.8 42.7-.8 1.4-3.9 2.5-5.7 2.1-40.4-8.6-80.8-8-121.4.8Zm82.5-31.6c-.4 1-.9 2-1.3 3-2 .5-4 .8-5.9 1.6-6.4 2.7-7.5 8.8-2.4 13.4 4.9 4.4 17.9 5.5 22.7 1.4 1.9-1.6 3.3-5 3.2-7.5 0-1.5-3.4-2.9-5.5-4.2-2.3-1.4-4.7-2.6-7.1-3.8 2.1-2.2 3.9-4.7 6.3-6.5 1.5-1.1 3.8-1.2 7-2 0-8.7.2-17.3 0-25.9-.5-14.4-10.7-22.6-25.6-21-4.1 8.8 4 20.6-5.9 26.9 1.3 6.8 2.4 12.9 3.5 18.9 3.1 1.6 7.1 3.7 11 5.7Zm-55.3-4.6c3.1 1.1 5.9 1.5 8 2.9 1.7 1.2 3.7 3.7 3.5 5.4-.2 1.5-3.2 2.7-4.9 4-2.5 1.8-5 3.4-7.5 5.2 2.6 2.8 4.7 6.4 7.8 8.1 2.5 1.4 6.9 1.5 9.5.2 4.4-2.1 10.3-5 11.4-8.8 2.1-7-4.8-8-10.1-9.1-.4 0-.7-.9-2.2-3.1 4.1-2.2 8-4.4 11.6-6.4.9-5.6 2-11.8 2.7-16.2-1.7-5.6-3.5-9.9-4.1-14.4-.7-5.1-.2-10.4-.2-15.7-20.1 1-27.6 8.9-26.8 26.9.3 6.8.8 13.6 1.3 20.9Zm-10.8 9.3c-6.3-16.8-10.4-32.6.2-48.6-22.2 2.4-35.1 23.6-24.8 40 5.1 8.1 9.3 15.5 8.6 25.3-.1 1.8 3.3 3.9 5.1 5.8 2.3-2.2 5.8-4.1 6.6-6.8.6-2-2.1-5.1-3.4-7.6l-5.1-9.6c.7-.5 1.3-1 2-1.5 3 .9 6 1.7 10.8 3.1ZM586 283c12.7 17 6.8 33 1.9 49.3 4.4-1.3 7.4-2.2 10.3-3 .8.7 1.6 1.4 2.3 2.2-2.1 3.2-4.7 6.2-6.1 9.7-1.3 3.2-2.1 7.1-1.7 10.5.2 1.3 5.7 3.5 6.2 2.9 2.1-2.2 3.6-5.3 4.6-8.3 2.1-6 2.6-12.8 5.9-18 5.6-8.7 8-17.2 3.6-26.8-4.8-10.4-13.1-16.3-27.2-18.4Z"/><path d="M396.4 509c1.4-18.4 2.9-36.7 4-55.1.4-6.7 3.1-9.8 9.9-11.1 44.9-9 86.1-26.9 124-52.4 4.5-3 7.2-2.9 11.6 0 37.9 25.6 79.2 43.1 124 52.5 4.4.9 8.3 1.4 9 7.6 8.6 70 4.9 138.6-26.2 203.3-22.3 46.3-57.6 79.6-105.8 98.5-4.1 1.6-10 1.6-14.1 0-67.5-27.2-105.4-79.4-123.9-147.8-8.5-31.2-11.6-63.1-12.5-95.4Zm12.1 66.3-.2-.3c3.8 16.4 6.3 33.3 11.7 49.2 19.1 56.6 55.3 98.4 110.7 122.4 4.7 2 11.4 2.9 15.9 1.1C604 724 640.9 681 660.8 622.9c18.5-54.2 21-110 14.5-166.5-.7-6.2-3.1-8.5-9-9.8-43.5-9.2-83.8-26.4-120.9-51-4.2-2.8-6.9-2.6-10.9.1-37 24.8-77.4 41.7-120.8 51.1-6 1.3-8.7 3.6-8.9 9.8-.7 24.4-2.6 48.7-2.2 73 .3 15.2 3.9 30.4 6 45.7Zm-49.6 217.8c-25.2 6.3-54.5-7.6-69.2-32.8-13-22.4-9.6-49.5 8.6-68.2 20.7-21.2 55.4-21.4 75.9-.2 2.3 2.4 3 6.4 3.9 8.3 9.4 5.7 18.2 11.1 27 16.4-10.3 10.9-24.8 10.5-36.5-1.2-9.8-9.8-20.3-18.4-34.6-20.6-10.5-1.6-19.8 1.4-27.9 9 12.5-6.8 24.7-5.2 36.6.6 11.3 5.6 21.9 12.3 28.5 23.4-.4.9-.9 1.8-1.3 2.7-5.9-1.8-11.8-3.6-18.6-5.6-4.2 5.4-9.2 11.4-18.7 7.9 1.5-4.2 3.1-8 4.1-12 2-8.1-1.6-13.5-9.8-14.6-10.3-1.3-19.9.6-26.3 9.5-7.2 10-7.9 21.2-3.8 34.9 1.6-6.9 2.4-11.7 3.9-16.2 1.4-4 4.3-7.2 8.8-4 3.7 2.7 9.4 4.3 6.2 11.6-2.8 6.3-5.2 13.3-5.6 20.1-.6 9.5 4.7 16.9 13.9 19.6 8.7 2.6 17.9 3.4 26.9 5.2 3.2.7 6.2 2.1 9.3 3.2-.3.9-.7 1.8-1 2.7Zm27.5-75.1c-7.4-6.5-14.2-11.6-19.9-17.7-9.3-10-23.5-15.9-34.1-12.5 17.4.2 28.6 10.5 39.3 22.4 3.3 3.7 9.4 5 14.8 7.7ZM720 790.5c3.1-1.1 6-2.8 9.2-3.3 6.7-1.1 13.8-.8 20.2-2.6 19.9-5.5 26.4-20.6 17-39.3-2.6-5.1-3.9-9 1.5-13.1 5.3-4 9.3-4 11.6 2.7 1.5 4.4 2.3 9.1 3.4 13.5 9.9-20.6-3.9-43-26.1-42.4-12.1.3-16.4 6.7-12.4 18.3 1 2.7 2.1 5.4 3.1 8.2-9.4 2.4-11.2 1.7-19-7.4-6.1 1.9-12.2 3.7-19.5 6 6.9-22.4 40.6-35.7 64.2-27.2-7.9-10.1-25.1-13-38.9-5.3-8.4 4.7-16 11.2-23.3 17.7-11.3 10.1-24.8 11-36.2.8 8.8-5.6 17.5-11 25.5-16.1 3.1-4.2 5.7-8.9 9.4-12.4 22.9-21.5 55.9-12.2 70.6 2.1 20.4 20 23.6 50.9 7.3 73.1-16.6 22.6-37.9 34.3-66.3 30-.5-1.1-1-2.2-1.5-3.4Zm-24.5-74v1.5c4.9-3.1 11-5.2 14.6-9.5 9.9-11.7 21.2-19.8 36.9-20.7.1 0 .2-1 .2-1.5-14.8-.6-25.2 4.5-35 15.5-4.9 5.5-11.1 9.8-16.7 14.7Zm22.4-102.7c-6.7 0-12.1.3-17.3-.1-3.2-.3-6.3-1.8-9.4-2.8 2.2-2.3 4.5-4.6 6.9-7.1-.9-2.7-2-6.3-4.1-12.7 15.4 9.7 25.5 2 35.7-4.4 30.1-19.1 38.9-41.9 30.7-76.7-.9-3.9 1.7-8.7 2.6-13 .8 0 1.7 0 2.5.1 2.6 10.4 5.6 20.8 7.8 31.3 2.5 12.2 8 22.5 18 29.8 7.4 5.4 7.5 10.6 1.2 16.7-1.3 1.2-2.1 3.1-3.6 3.9-3.3 2-8.8 5.7-9.9 4.8-3.2-2.8-4.6-7.5-6.7-11.5.9-.6 1.8-1.1 2.7-1.7l6 5.4 1.2-.7c-2.7-6.9-5.4-13.8-8.3-21.2-7.1 15.4-14.7 29.5-20 44.4-1.8 5 2.1 11.9 3.5 18.8-.8.4-3.1 1.3-5.9 2.5.5 1.4 1.3 2.7 1.4 4 .1 2.6-.2 5.2-.3 7.8-2.7-.3-6.1.4-8-1-4.5-3.1-8.2-7.2-12.7-11.3-4.1 8.1.5 12.6 4.1 17.5 1.7 2.3 4.1 7 3.4 7.6-3.7 3.2-7.9 6.5-12.4 7.6-1.9.5-6.1-4-7.4-7-1.6-3.9-1.3-8.5-2-13.7-5.9 8.6-5.1 16 1.5 23.1 8.4 8.9 18.4 7.7 37.5-4.9.4 8.7-3.6 14.8-10.7 18.1-9 4.1-18.1 3.2-26.1-3.1-11.4-9-14.3-25.8-7.2-40.6 1.4-2.9 3-5.7 5.2-9.8Zm-410.1-42.2c-2 4.1-3.2 9.1-6.4 11.8-1.4 1.1-7.2-2.6-10.5-4.8-2.4-1.6-3.9-4.5-5.9-6.7-3.8-4.2-3.5-7.9 1.1-11.3 12.6-9.3 19.6-21.8 22-37.3 1.4-9 4.1-17.9 6.3-26.8 1.1 0 2.2-.1 3.2-.2.4 5.6 2.4 11.6 1.1 16.8-8.9 36.3 14 74.3 50.9 82.4 4.1.9 8.9-1.1 15.2-2.1-1 3.6-1.9 7.1-3 11.3 1.1.5 3.1 1 4.6 2.2 1.2.9 1.8 2.6 2.6 4-1.4.9-2.7 2.4-4.1 2.5-7.1.3-14.2.1-22.2.1 2.6 6.1 5.3 11.3 7.1 16.8 6.4 20.2-6.7 39.5-26.3 39.1-12-.2-19.2-7.5-19.9-19.6 5.8 3.2 11.5 7.4 18 9.5 7.1 2.2 14.2.2 19.7-5.4 5.9-6.1 6.6-15 1.4-22.9-.6 4.9-.2 9.7-1.9 13.4-1.5 3.2-6.3 7.7-8.3 7.1-4.7-1.5-8.7-5.5-12.6-8.9-.2-.2 2.4-4.2 4-6 5.8-6.3 6.6-9.3 3.8-17.5-3.7 3.5-6.6 7.3-10.4 9.7-2.8 1.7-6.7 1.5-10.1 2.2l.6-8.7c0-.9.4-1.7.6-3-2.4-.8-4.8-1.6-8.9-3 14.8-11.7 4.7-22.1 0-32.8-4.2-9.5-8.2-19-12.8-29.6-3.1 7.2-6 14-8.9 20.8.4.4.9.7 1.3 1.1 1.9-1.8 3.9-3.5 5.8-5.3l3 1.2Zm32.2 26.6c9.5 3.4 18.4 6.6 27.4 9.8.2-.7.5-1.5.7-2.2q-18.8-4.6-46.8-35.1c5.1 10.1 10.4 20.3 17.1 29.4 7.6 10.5 19.7 18.1 18.6 33.6 4-16.7-9.2-24.8-17.1-35.5Zm-23.3-37.3c.7-.1 1.5-.3 2.2-.4-2.5-11.4-4.9-22.9-7.4-34.3-.7.2-1.5.3-2.2.5 2.5 11.4 4.9 22.8 7.4 34.2ZM737.5 797c-14.9 36.6-14.9 38.8-.5 59.5-5.5.4-10 1.7-14 .7-16-4.1-24.7-16.7-32.4-30-.7-1.3.4-4.6 1.7-5.9 6.9-7.3 13.3-15.8 21.7-21 5.7-3.5 14.3-2.2 23.5-3.3Zm-394.8 2.1c12.5-2.3 23.1-3.7 30.7 7.6 2.1 3.1 5.3 5.5 8.1 8.2 10.5 10.4 10.6 10.5 1.9 22.1-6.6 8.9-13.9 17.3-25.3 19.8-4.2 1-8.9.2-16.4.2 20.1-20.4 11.1-38.8 1-57.9Z"/><path d="M755.6 510.3c5.5 26.6-11.9 62.7-33.4 73-5.1 2.4-9.9 3.8-13.7-2.8-1.3-2.4-5-3.6-7.9-4.8-5.9-2.6-11.5-7-9-13.3 2.6-6.7 8.6-12.1 13.3-17.8.3-.4 3.6.7 4.3 1.9.7 1.1 0 3.2-.5 4.7-.2.7-1.5 1-1.9 1.8-1.8 3.3-3.5 6.7-5.3 10.1 2.8 1.1 5.9 3.6 8.5 3.1 4.4-.8 10.5-.8 10-8.5-.1-1.8 2.6-4.3 4.6-5.6 11.5-7.7 20.4-16.8 22.2-31.6.4-3.2 4.9-5.9 8.7-10.1Zm-25.3 47.5c2.9-2 5.6-3.9 8.2-5.7.4.4.7.8 1.1 1.3-5.1 5.4-10.3 10.8-16.2 17.1 15.4-6 32.3-34.9 28.3-43.2-6.6 9.4-13.8 19.7-21.4 30.6Zm-403.7-46.6c2.4 4.3 5.9 8.4 7 13.1 2.8 11.4 9.8 19.3 19 25.9 3.4 2.5 9.2 3.4 7.4 10.5-.3 1 6.7 4.7 10.7 5.7 2.1.5 7.1-2.1 7.1-3.2 0-3-2.1-6-3.4-9.1-1.1-2.8-2.2-5.6-3.2-8.4 3.1.8 7.1.7 9.2 2.6 12.7 11.8 10.8 24.6-3.9 28.5-1.8.5-4.2 1.7-4.9 3.2-3.3 7.6-8.7 6-14 3.3-21.5-10.6-38.7-46.3-34.1-70.4 1-.5 2.1-1.1 3.1-1.6Zm23 46.4.6-1.2c-4.3-4.8-9.1-9.3-12.9-14.5-3.5-5-5.9-10.8-9.8-18.1 1.2 19.5 15.5 42.1 28.6 46.2-5.8-6.1-11.1-11.7-16.4-17.3.4-.4.7-.8 1.1-1.2 2.9 2 5.9 4.1 8.8 6.1Zm327 106.7c-3 1.7-6 3.4-9.1 5.2-.7-1.6-1.3-2.3-1.1-2.6 7.2-12.8 14.4-25.7 21.8-38.4 1.3-2.3 3-4.8 5.2-5.9 2.6-1.3 6.4-2.1 8.8-1.2 1.4.6 2.3 5.2 1.8 7.7-2.6 12.1-3.5 23.8 2.1 35.6 2.8 6 .6 12-5.6 16.9-2.1-3.6-3.8-6.8-5.7-10.1q-13 22-22.5 21.8c-.2-4.9-1.2-9.7-.4-14.3.8-5 3.1-9.8 4.9-14.9Zm21.6-37.7c-9.2 15.9-12.3 32.9-12.8 50.6 1.2-5.3 2.5-10.6 3.8-16.2 1.9 1.3 3.2 2.1 3.1 2 1.9-11.8 3.8-23.7 5.9-36.5Zm-284.1 43.6c-4.6-2.4-7.5-3.9-11.9-6.2 4.4 7.5 10 13.4 3.8 21.2-.7.9 2.3 4.8 3.6 7.3-10.3 2.5-13.4-.1-24-20.7-2 3.4-3.9 6.5-5.9 10-7.2-5.1-8.1-11.8-5.1-18.4 5-10.7 4.2-21.2 1.9-32.2-.7-3.2 1.2-6.9 1.9-10.4 3.6 1.4 7.3 2.7 10.9 4.1.7.3 1.3 1.3 1.7 2 7.4 13.7 14.7 27.5 23.2 43.4ZM382 627.4c1.8 11.9 3.6 24 5.4 36 .6-.8 1.7-2.1 3.5-4.3 1.3 7 2.5 12.8 3.6 18.7-.4-18-3.2-35.3-12.5-50.3Zm283.5 82.4c-5.4 2.6-8.8 4.4-12.3 6-1.2.6-2.7 1-4 1.1-18.1.9-24.8 14.3-15.6 29.8 1.1-6 2.2-12.5 3.3-18.7 5.3 1.2 8.7 1.9 12.9 2.9-1.3 5.9-9.2 11.8-3.6 18.6 5.7-6 11.5-12.1 18.2-19.1 2.8 10.2 12.3 19 0 25-5.5 2.7-13.4.5-19.9.5 1.3 1.6 3.9 4.8 7.3 9.1-2.6.3-4.5 1-6 .5-14.3-4.8-23.3-20.9-20.5-36.4 2.7-14.8 16-25.7 31.2-25.3 4.8.1 9.9.5 8.9 6.1Zm-251.9.1c2.1-1.9 3.9-5 6.3-5.6 14.4-3.7 31.1 8.2 34.4 23.9 3.5 16.7-7.1 35-22 37.7-.9.2-2.1-.7-4-1.4 3.3-3.9 6.2-7.3 9-10.6-.3-.4-.7-.8-1-1.2-2.2 1.3-4.3 2.7-6.5 3.8-9.3 4.3-18.6-.2-20.6-10.1-.3-1.5 0-3.5.7-4.8 1.7-2.7 3.9-5.1 7.3-9.5 4.9 5.1 10.4 11 16.3 17.2 5.5-6.4-1.2-12-3.7-18.5 4-.6 7.5-1.2 13.4-2.1 1 5.7 2.2 12.3 3.4 18.5 4.5-6.7 4.6-14.4 1.4-22.1-3.1-7.3-9.1-9.7-16.9-8.2-1.3.2-2.8-.4-4.1-1-3.5-1.6-7-3.5-10.5-5.2l-3-.8Zm249.7-295.7c6.8 9.5 13.6 5.1 19.7 2.4 6.5-2.9 12.5-6.7 18.4-9.9 5.6 4.1 10.7 7.8 18.1 13.2-6.9 2.2-11.8 3.7-17.4 5.5v-7c-34.3 9.9-67.4 9.7-98-11.2 7.3 2.3 14.4 5.2 21.8 6.7 23.4 4.8 42.8-1.7 57.5-21.2 1.9-2.5 6.4-5.4 8.6-4.7 3.4 1.1 7.7 4.9 8 7.9.3 2.9-3.4 7.6-6.5 9.2-5.5 2.7-11.9 3.5-17.9 5.2-3.8 1.1-7.6 2.4-12.3 3.9Zm-187.8-7.3c-30.2 21-62.9 21.4-97.3 11.4v6c-2.6-.3-5.1 0-7.1-.9-2.5-.9-4.8-2.7-7.2-4.1 1.9-1.9 3.8-4 5.9-5.7 2.6-2.3 5.4-4.4 8.3-6.7 12.2 2.8 21.9 18.3 36.7 10.6.3-1.3.7-2.5 1-3.8-4-1.2-8-2.5-12-3.6-6-1.7-12.4-2.5-17.8-5.3-3-1.5-6.5-6.6-6-9.4.6-3.1 5.1-6.5 8.6-7.7 2-.7 6.1 2.3 8 4.6 17.2 21.8 41 28.5 67.7 18.9 3.8-1.4 7.6-2.9 11.3-4.3Zm130.7-16c17.4-11.4 18.5-15.9 6-27.2 2.5-4 5.1-8.1 9.1-14.7 5.5 7.8 10.3 14.7 15.2 21.5.5-.1 1.1-.3 1.6-.4-2.5-5.3-4.5-11-7.7-15.9-4.2-6.5-5.7-12.7-1.1-19.9 4.8 8.6 9 17 13.8 24.9 8.7 14.3 4.7 27.4-11 33.3-4.5 1.7-9.4 2.4-15.8 3.9 4-5.3 6.7-8.9 10.4-13.7-7.7 4.1-13.8 7.2-19.8 10.4-.3-.7-.6-1.4-.9-2.2Zm-155.6-56.3c4.7 7.3 2.6 13.5-1.3 20-3.3 5.4-5.4 11.6-6.4 17.9 4.8-7.5 9.6-15 15.2-23.8 4.1 6.1 6.7 10.1 9.4 14.2q-10.6 14.3 5 30c-5.8-3.1-11.6-6.2-19.1-10.3 3.5 4.9 6.2 8.5 9.4 12.9-11.8-.6-21.9-3.1-27.9-13.5-4.3-7.4-4.7-14.5 1.2-22.2 5.7-7.4 9.5-16.2 14.6-25.3Zm148.6 31.5c.9 8.6-1.9 10.5-8.7 9.2-33-6.4-66.1-6.7-99.1 0-7.3 1.5-8.8-1.8-8.9-9 38.8-7.8 77.5-7.4 116.6-.3Z"/><path d="M599.1 385.1c-27.9-.8-52.5-1.9-77.1-2-10 0-20 2.4-30.1 3.2-2.2.2-4.6-1.7-6.9-2.7 1.8-1.8 3.5-4.9 5.5-5.2 30.1-5 60.2-6.4 90.5-1.6 3.5.6 7.3.4 10.5 1.6 2.5 1 4.3 3.7 7.5 6.7Zm98.8 150.8c-5.6-8.9-2.6-16.3 2.8-22.6 6.4-7.4 13.7-13.9 20.8-20.7 13.8-13.3 23.5-27.8 14.3-49 13.3 11.7 13.6 35.9 1.5 48.8-2.6 2.8-5.7 5.1-8.7 7.7-6 5.2-12.7 9.9-17.9 15.9-4.9 5.7-8.3 12.7-12.9 19.8Zm-354.5-91.6c-8.5 20.8 1.6 35.4 15.6 48.9 7.3 7 14.7 13.8 21.2 21.4 5.2 6.1 7.2 13.4.7 22.8-5.4-20.4-21.1-30.1-34.8-41.7-15.3-13-16.6-37-2.7-51.5Z"/><path d="M720.1 436.4c13.2 5.4 19 20.9 13.3 34.9-4.9 11.9-13.6 21-25.2 26.7-2.7 1.3-7.3 1.2-9.7-.3-1.7-1.1-1.6-5.7-1.5-8.8.1-3.4 1.1-6.8 1.9-11.6 11.3 3.5 21 .1 26.7-10.6 5.7-10.7 1.6-20.5-5.6-30.2Zm26 422.5c4.8-4.3 10.6-8 14.3-13.1 2.6-3.6 3.9-9.5 3-13.7-.7-3.2-5.8-5.4-9-8-2.4 2.9-4.9 5.6-7 8.6-.9 1.3-.7 3.3-3.1 6.3-2.1-3-5.7-5.9-5.9-9-.2-3.1 2.3-7.4 4.9-9.3 8.8-6.5 27.6-3.8 34.7 4.4 4.8 5.5 5 13.5-1.9 19-8.6 6.8-18.6 11.7-28.1 17.5l-1.8-2.7Zm-411.9-21c-.4-1.7-.2-3.9-1.2-5.1-2.5-3.1-5.4-5.9-8.2-8.8-2.9 3.2-8.4 6.6-8.3 9.7.2 5.3 3 11.1 6.2 15.6 2.8 3.9 7.6 6.3 11.2 10.1-11.7-3.3-23.4-6.4-31.3-16.6-6.2-8-4.8-15.9 3.8-21.1 8.3-4.9 17.5-6.6 26.5-2.8 3.6 1.5 7.9 5.4 8.6 8.9.7 3.2-3 7.3-4.7 11-.9-.3-1.8-.6-2.8-.9Zm46.9-360.2c1 4.9 2.2 9 2.7 13.3.5 5.1-1.4 9.9-7.2 8.2-14.7-4.1-24.1-14.7-29.8-28.3-4.9-11.9-1.5-24.4 7.5-32.4.8-.7 1.9-1.2 3.9-1.5-5.2 9.6-9.6 19.2-3.9 29.6 5.9 10.9 15.8 13.2 26.8 11.1Zm84.2-75.7c-18.6 7.9-36.7 9.3-54-2.9-2.1-1.5-4.4-3.4-5.5-5.6-.9-1.9-.3-4.7-.3-7 1.9.8 4.2 1.3 5.8 2.5 5.5 4.4 10.7 9.2 16.3 13.4 1.6 1.2 4.3.8 6.5 1.2.4-.8.8-1.6 1.1-2.4-5.1-3-10.2-5.7-15.1-9-2-1.3-5-3.9-4.7-5.3.5-2.5 2.8-5.3 5.1-6.5 1.3-.6 4.8 1.4 6.1 3.2 9.5 13.4 23 18 38.7 18.4Zm148.2-1.1c18.2 1 31.8-4.9 41.6-19.1.6-.9 5.1.8 7.8 1.2-.6 3 0 7.3-1.9 8.6-5 3.8-10.9 6.3-15.7 10.5 13.3 1.5 19.2-9.6 27.4-16.7.9.4 1.8.7 2.7 1.1-1 3.2-1.1 7.1-3.1 9.4-12.1 13.8-41.6 16.6-58.9 5Zm138.8 69c2.2 20.1-24.7 54.2-42.9 52.2 3.7-3.9 6.3-7.2 9.4-9.9 2.9-2.5 6.3-4.4 9.6-6.4 13.7-8.1 23.3-19 23.9-36Zm-424.6.4c.1 17.9 11.8 27.6 25.1 36.4 6 3.9 11.5 8.6 17.3 13-.6 1.3-1.2 2.5-1.8 3.8-3-1.1-6.6-1.5-9-3.3-6.5-5.1-12.5-10.9-18.6-16.5-9.7-8.9-14.5-19.8-13-33.3Zm225.9 313.4c-13.3 11-14.7 11-26.8.2 11-10.8 13.2-10.9 26.8-.2Zm37.1-423.9h-98.8c31.7-5.8 66.3-5.8 98.8 0Z"/><path d="M760.1 486.1c-1.1 13.3-9.9 22.2-20.5 29.8-1.2.8-3.6 0-5.4-.2.4-1.6.3-3.6 1.3-4.7 2.2-2.3 5.3-3.9 7.5-6.2 5.8-6.1 11.4-12.4 17.1-18.7Zm-440.4 1c7.1 6.8 14.5 13.7 21.5 21 2 2 2.9 5 4.4 7.6-2.8-.6-6.2-.4-8.2-2-9.2-7.2-16.8-15.6-17.7-26.6Zm353.8-55.4c23.6 1.4 38.9 17.8 30.6 33.8-.4-20.3-14.7-26.8-30.6-33.8Zm-269 .5c-13.9 6.2-27.1 12.9-28.6 31.1-8.7-13.4 6.6-29.7 28.6-31.1ZM731 781.3c5.1-7.1 9.3-13.1 15.4-21.7.7 5.1 2.1 8.2 1.4 10.7-2 7.5-7.9 10.3-16.8 11Zm-382.2-.4c-14.9-1.8-20.1-9.1-14.4-19.5 4.7 6.3 9.1 12.3 14.4 19.5Zm25.4-348.4c-5.1 8.4-10.7 17.7-15.3 25.6-3.4-10.2 2.8-21.1 15.3-25.6Zm347.1 23.8c-5.7-8.2-12.1-17.3-17.5-25.1 13 4.2 20.2 15.1 17.5 25.1Z"/><path d="M713.6 458.4c-3.2-6.7-6.6-14-9.7-20.6 7.6 2.5 11.4 10.4 9.7 20.6ZM408.5 575.3c-1.2-16.9-3.6-33.7-3.5-50.6.2-22.5 2.1-45.1 3.8-67.6.2-2.5 3.5-6.2 5.9-6.7 43.7-9.9 84.5-26.2 121.6-51.6 1.9-1.3 6.4-.9 8.4.5 36.6 25 76.8 41.4 120 50.6 5.1 1.1 6.8 3.5 7.3 8.2 7.6 68.5 4.3 135.7-28.5 198.2-21.6 41.2-54.8 70.7-98.6 87.4-3.4 1.3-8.3.8-11.7-.5-48.2-19.3-82.8-53.2-103.3-100.5-8.5-19.7-13.1-41.2-19.5-61.8-.6-1.9-1.4-3.8-2.2-5.7l.2.3Zm263-67.9c-.5-8.1-.8-21.6-2.4-34.8-2.5-20.8 1.3-16.7-18.8-21.3-3.8-.9-7.5-1.7-11.2-2.9-32.9-10-64.2-23.4-92.8-42.7-4.6-3.1-7.9-3-12.6.1-34.8 23.2-72.8 38.9-113.7 47.5-5.8 1.2-7.6 4-8.2 9.5-4.8 46.8-4 93.3 8.3 139.1 16.7 62.3 51.5 109.8 112 135.9 3.7 1.6 9 2.6 12.5 1.2 45.5-18 78.5-49.7 99.5-93.7 20-41.9 26.6-86.7 27.4-137.9Z"/><path d="M665.6 515.3c-.9 48.6-8.1 95.5-32.4 138.5-20.1 35.4-49.3 60.7-87.1 75.8-4.2 1.7-10.6.8-15-1.1-51-21.8-83.7-60.3-100.8-112.5-15.8-48.4-18.7-97.9-11.7-148.1.4-3.1 4.2-7.4 7.1-8.1 39.8-9.3 77.1-24.2 110.9-47.4 1.7-1.2 5.7-.9 7.5.4 33.7 22.7 70.6 38.1 110.3 46.4 5.1 1.1 7 3.4 7.3 8.2 1.2 16 2.6 32 3.9 48Zm-125.5-99.8c-34.3 23.2-71.5 38.9-111.7 48.1-2.4.5-5.3 4.6-5.6 7.3-6.5 51.8-3.8 102.8 14.7 152.1 17.6 46.7 48.3 81.5 94.8 101 3.9 1.7 9.6 2.2 13.4.7 37-14.7 65-40.1 84.3-74.8 16.2-29 25.7-60.5 27.9-93.3 1.9-28.3 0-56.9-.7-85.4 0-2.7-3.6-7.1-6.3-7.7-39.8-9.3-76.8-24.9-110.9-47.9Z"/><path d="M469.6 568.9c9.1-15 23.6-20.7 39.9-23 9-1.3 18.1-1.6 27.2-2.4-6.6-26.7-29.1-38.5-49.2-25.3-6 3.9-9.3 11.9-14.3 17.6-3.1 3.6-6.5 8.1-10.7 9.3-5.8 1.7-10.5-2.2-11.3-8.5-2.5-21.3 15.8-56.5 43.3-62.3l-.1-.2c-3.1 2.1-6.2 4.3-9.4 6.2-20.1 11.5-29.2 29.8-31.8 51.8-.4 3.2 3.3 8.9 6.3 9.9 2.6.9 7.2-2.9 10.4-5.3 1.7-1.3 2.2-4.1 3.3-6.2 8.9-16.3 22.4-22.6 40.2-18.8 12 2.6 25 19.4 26.2 34.5-4.4.2-8.8.8-13.1.6-14.3-.5-28 1.7-40.2 9.3-5.9 3.7-11.2 8.3-16.8 12.6h.2ZM623 492c-9 11.3-22.3 13.8-35.3 16.3-6.9 1.4-14.2 1.3-21.7 1.9 5.6 9.8 11.1 19.4 17.7 30.8 3.7-4.3 7.6-8.1 10.5-12.5 3.4-5.2 7.1-9.1 13.8-6.6 6.6 2.5 8.7 7.6 7.4 14.3l-6.6 36c-1.2 6.4-1.1 14.7-9.3 15.2-5.3.3-10.9-3.8-15.6-5.7-3.7 10.1-8.2 22.6-12.7 35.1l.2.2c3.6-14.1 7.2-28.2 11.4-44.3 2.6 3.3 3.3 4.7 4.4 5.5 3.5 2.6 7.5 7.2 10.7 6.7 3.1-.5 6.8-5.9 7.7-9.7 2.9-12.4 4.8-25 6.9-37.6.9-5.5 1.3-11.1-5.4-13.3-6.2-2-8.6 2.4-11.8 6.8-3.5 4.9-8.6 8.7-12.4 12.4-8.1-13.2-15.1-24.5-21.2-34.4 14.1-2.6 28.9-4.9 43.5-8.4 6.4-1.5 12.1-5.7 18.1-8.7h-.2Z"/><path d="M494.5 474.3c6.1-1.7 12.1-4.5 18.3-4.8 29.6-1.2 59.3-1.7 88.9-2.6 5.3-.2 10.6-1.8 15.9-1.5 4.4.2 10.9.9 12.5 3.6 2.1 3.8 1.4 10 .2 14.7-.9 3.2-4.8 5.5-7.3 8.2l.2.1c1.9-3.3 4.5-6.4 5.4-9.9 1-3.7 1.8-8.9 0-11.4s-7-3.4-10.8-3.4c-5.6 0-11.1 1.6-16.7 1.8-35.5 1.7-71 3.3-106.5 4.9l.1.2Zm53.5 173c-12.7 12.8-37.1 16.3-56 7.4-10-4.8-20.1-10-24.2-21.6l-.2.1c1.7 1.5 3.5 2.9 5 4.6 13.8 15 30.8 22 50.9 18.6 8.5-1.5 16.4-5.8 24.6-8.9l-.2-.2Z"/><path d="M467.8 633.1c-14.6-16.1-13.7-47.7 1.8-64.2l-.2-.1c-4.8 12-11.6 23.7-9.2 37.3 1.6 9.2 4.9 18.1 7.4 27.2h.2Zm103.4-16.2c-3.2 13.6-10.8 23.8-23.2 30.4l.2.2c7.8-10.1 15.5-20.3 23.3-30.4l-.2-.2Z"/><path d="M551.1 556.4c-3.2-30.8-21.4-54.7-45.5-54.4-16.8.2-29.9 6.7-38.4 21.4-1.2 2-2.4 4-4.1 6.8 2.2-27.7 24.3-48.7 51.3-49.6 30.6-1 61.2-1.9 91.8-2.9 4.7-.2 9.4-.9 15.6.4-3.8 3.7-7 8.9-11.5 10.7-10.4 4-21.3 7.9-32.2 9-15 1.5-30.2.4-46 1.3 20.7 13.3 38 28.5 41 55.4 12.4-.8 21.2-7.1 30.1-17.6-2.2 13.6-4.1 25.2-6.4 39.7-3.2-5.7-5.1-9.1-7.2-12.7-2.5.7-4.7 1.6-7 1.9-8 1.2-10.7 5.7-11.4 13.9-1.7 18.9-7.4 36.7-20.1 51.5-14.4 16.8-36.9 22-55.7 13-20-9.5-29.8-29.2-25.8-51.7 3.3-18.6 21.4-34.3 42.7-35.8 12.7-.9 25.4-.2 38.9-.2Zm-23.3 11.8v-.4c-6.8.3-13.7.2-20.4 1-22.9 3-33.6 17.2-30.9 40.1 1.8 14.8 14.5 28 29.4 30.7 17.4 3.1 30-2.8 36.8-19.1 3.8-9.2 6.6-19.1 7.8-28.9 3-22.9 2.5-23-20.1-23.4h-2.7Z"/><path d="M544.8 577.7c-3.2 13.8-4.9 26.1-9.1 37.5-5.6 15.1-16.1 19-32.3 14.3-11.9-3.5-20.4-17.1-18.6-29.9 1.8-13.2 8.5-20.6 21.8-21.7 11.7-.9 23.4-.2 38.2-.2Zm-57.7 23.9c-.6 13.8 8.4 24.7 22.7 27.5 11.5 2.2 20.7-3.7 25.1-17.3 2.6-8.1 4.3-16.6 5.6-25 .3-2.1-2.5-6.8-3.9-6.8-10.9-.2-22-.6-32.7 1-11.5 1.7-16.3 8.9-16.8 20.6Z"/></svg>